<?xml version="1.0" encoding="utf-8"?>
<!-- Generator: Adobe Illustrator 23.0.0, SVG Export Plug-In . SVG Version: 6.00 Build 0)  -->
<svg version="1.1" xmlns="http://www.w3.org/2000/svg" xmlns:xlink="http://www.w3.org/1999/xlink" x="0px" y="0px"
	 viewBox="0 0 1024 1024" style="enable-background:new 0 0 1024 1024;" xml:space="preserve">
<style type="text/css">
	.st0{fill-rule:evenodd;clip-rule:evenodd;fill:#333333;}
	.st1{fill:#333333;}
	.st2{fill:#FFD948;}
</style>
<g id="参考线">
</g>
<g id="图层_2">
	<g id="圆角矩形_9_拷贝_2">
		<g>
			<path class="st0" d="M128.71,806.96c-19.91,0-36.11-16.2-36.11-36.11c0-19.91,16.2-36.11,36.11-36.11h762.18
				c19.91,0,36.11,16.2,36.11,36.11c0,19.91-16.2,36.11-36.11,36.11H128.71z M128.71,540.2c-19.91,0-36.11-16.2-36.11-36.11
				c0-19.91,16.2-36.11,36.11-36.11h762.18c19.91,0,36.11,16.2,36.11,36.11c0,19.91-16.2,36.11-36.11,36.11H128.71z M128.71,273.44
				c-19.91,0-36.11-16.2-36.11-36.11s16.2-36.11,36.11-36.11h762.18c19.91,0,36.11,16.2,36.11,36.11s-16.2,36.11-36.11,36.11H128.71
				z"/>
		</g>
		<g>
			<path class="st1" d="M890.89,203.22c18.81,0,34.11,15.3,34.11,34.11s-15.3,34.11-34.11,34.11H128.71
				c-18.81,0-34.11-15.3-34.11-34.11s15.3-34.11,34.11-34.11H890.89 M890.89,469.98c18.81,0,34.11,15.3,34.11,34.11
				s-15.3,34.11-34.11,34.11H128.71c-18.81,0-34.11-15.3-34.11-34.11s15.3-34.11,34.11-34.11H890.89 M890.89,736.75
				c18.81,0,34.11,15.3,34.11,34.11c0,18.81-15.3,34.11-34.11,34.11H128.71c-18.81,0-34.11-15.3-34.11-34.11
				c0-18.81,15.3-34.11,34.11-34.11H890.89 M890.89,199.22H128.71c-21.05,0-38.11,17.06-38.11,38.11s17.06,38.11,38.11,38.11h762.18
				c21.05,0,38.11-17.06,38.11-38.11S911.94,199.22,890.89,199.22L890.89,199.22z M890.89,465.98H128.71
				c-21.05,0-38.11,17.06-38.11,38.11c0,21.05,17.06,38.11,38.11,38.11h762.18c21.05,0,38.11-17.06,38.11-38.11
				C929,483.04,911.94,465.98,890.89,465.98L890.89,465.98z M890.89,732.75H128.71c-21.05,0-38.11,17.06-38.11,38.11
				c0,21.05,17.06,38.11,38.11,38.11h762.18c21.05,0,38.11-17.06,38.11-38.11C929,749.81,911.94,732.75,890.89,732.75L890.89,732.75
				z"/>
		</g>
	</g>
	<g id="椭圆_7">
		<g>
			<path class="st2" d="M643.18,321.65c-46.5,0-84.33-37.83-84.33-84.33c0-46.5,37.83-84.33,84.33-84.33
				c46.5,0,84.33,37.83,84.33,84.33C727.51,283.83,689.68,321.65,643.18,321.65z"/>
		</g>
		<g>
			<path class="st1" d="M643.18,183c29.96,0,54.33,24.37,54.33,54.33c0,29.96-24.37,54.33-54.33,54.33s-54.33-24.37-54.33-54.33
				C588.85,207.37,613.22,183,643.18,183 M643.18,123c-63.14,0-114.33,51.19-114.33,114.33c0,63.14,51.19,114.33,114.33,114.33
				s114.33-51.19,114.33-114.33C757.51,174.19,706.32,123,643.18,123L643.18,123z"/>
		</g>
	</g>
	<g id="椭圆_7_拷贝">
		<g>
			<path class="st2" d="M376.42,588.42c-46.5,0-84.33-37.83-84.33-84.33c0-46.5,37.83-84.33,84.33-84.33s84.33,37.83,84.33,84.33
				C460.75,550.59,422.92,588.42,376.42,588.42z"/>
		</g>
		<g>
			<path class="st1" d="M376.42,449.76c29.96,0,54.33,24.37,54.33,54.33c0,29.96-24.37,54.33-54.33,54.33s-54.33-24.37-54.33-54.33
				C322.09,474.13,346.46,449.76,376.42,449.76 M376.42,389.76c-63.14,0-114.33,51.19-114.33,114.33
				c0,63.14,51.19,114.33,114.33,114.33s114.33-51.19,114.33-114.33C490.75,440.95,439.56,389.76,376.42,389.76L376.42,389.76z"/>
		</g>
	</g>
	<g id="椭圆_7_拷贝_2">
		<g>
			
				<ellipse transform="matrix(0.2298 -0.9732 0.9732 0.2298 -254.8247 1219.7233)" class="st2" cx="643.18" cy="770.85" rx="84.33" ry="84.33"/>
		</g>
		<g>
			<path class="st1" d="M643.18,716.53c29.96,0,54.33,24.37,54.33,54.33c0,29.96-24.37,54.33-54.33,54.33s-54.33-24.37-54.33-54.33
				C588.85,740.9,613.22,716.53,643.18,716.53 M643.18,656.53c-63.14,0-114.33,51.19-114.33,114.33
				c0,63.14,51.19,114.33,114.33,114.33S757.51,834,757.51,770.86C757.51,707.71,706.32,656.53,643.18,656.53L643.18,656.53z"/>
		</g>
	</g>
</g>
</svg>
