<?xml version="1.0" encoding="utf-8"?>
<!-- Generator: Adobe Illustrator 23.0.0, SVG Export Plug-In . SVG Version: 6.00 Build 0)  -->
<svg version="1.1" xmlns="http://www.w3.org/2000/svg" xmlns:xlink="http://www.w3.org/1999/xlink" x="0px" y="0px"
	 viewBox="0 0 1024 1024" style="enable-background:new 0 0 1024 1024;" xml:space="preserve">
<style type="text/css">
	.st0{fill-rule:evenodd;clip-rule:evenodd;fill:#333333;}
	.st1{fill:#333333;}
	.st2{fill:none;stroke:#333333;stroke-width:60;stroke-linecap:round;stroke-linejoin:round;stroke-miterlimit:100;}
</style>
<g id="参考线">
</g>
<g id="图层_2">
	<g id="圆角矩形_3_拷贝">
		<g>
			<path class="st0" d="M395.1,440.43h-29.07v-28.45c0-15.71-12.74-28.45-28.45-28.45c-15.71,0-28.45,12.74-28.45,28.45v28.45
				h-28.54c-15.66,0-28.36,12.7-28.36,28.36v0.18c0,15.66,12.7,28.36,28.36,28.36h28.54v27.92c0,15.71,12.74,28.45,28.45,28.45
				c15.71,0,28.45-12.74,28.45-28.45v-27.92h29.07c15.66,0,28.36-12.7,28.36-28.36v-0.18C423.46,453.13,410.76,440.43,395.1,440.43z
				"/>
		</g>
	</g>
	<g id="椭圆_3">
		<g>
			<ellipse class="st1" cx="687.5" cy="461.7" rx="78.44" ry="78.18"/>
		</g>
	</g>
	<g id="圆角矩形_2_拷贝">
		<g>
			<path class="st1" d="M719.04,296.73c40.14,0,77.85,15.5,106.19,43.64C853.45,368.39,869,405.62,869,445.2v327.6
				c0,32.6-26.91,59.12-59.98,59.12h-36.7c-3.52-2.57-10.13-8.01-20.86-19.1c-13.33-13.77-28.27-31.2-44.08-49.66
				c-58.82-68.68-119.65-139.71-191.81-139.71c-73.56,0-136.94,70.43-198.24,138.54c-16.88,18.76-32.83,36.48-47.04,50.38
				c-12.16,11.89-19.3,17.25-22.83,19.55h-38.33c-33.07,0-59.98-26.52-59.98-59.12V445.2c0-39.58,15.54-76.81,43.77-104.83
				c28.34-28.14,66.05-43.64,106.19-43.64H719.04 M719.04,236.73H299.12c-115.96,0-209.96,93.33-209.96,208.47v327.6
				c0,65.79,53.71,119.12,119.98,119.12h45.17c59.11,0,175.54-208.47,261.26-208.47c81.53,0,192.41,208.47,248.55,208.47h44.9
				c66.26,0,119.98-53.34,119.98-119.12V445.2C929,330.06,835,236.73,719.04,236.73L719.04,236.73z"/>
		</g>
	</g>
	<polyline class="st2" points="618,153 509,165 419.19,264.19 	"/>
</g>
</svg>
