<?xml version="1.0" encoding="utf-8"?>
<!-- Generator: Adobe Illustrator 23.0.0, SVG Export Plug-In . SVG Version: 6.00 Build 0)  -->
<svg version="1.1" xmlns="http://www.w3.org/2000/svg" xmlns:xlink="http://www.w3.org/1999/xlink" x="0px" y="0px"
	 viewBox="0 0 1024 1024" style="enable-background:new 0 0 1024 1024;" xml:space="preserve">
<style type="text/css">
	.st0{fill:#FFD948;}
	.st1{fill:#333333;}
	.st2{fill:#FFFFFF;}
</style>
<g id="参考线">
</g>
<g id="图层_2">
	<g id="圆角矩形_12_拷贝_2">
		<g>
			<path class="st0" d="M274.81,876c-52.17,0-94.62-42.44-94.62-94.62V407.54c0-17.81,14.49-32.31,32.31-32.31h591.92
				c17.81,0,32.31,14.49,32.31,32.31v373.85c0,52.17-42.44,94.62-94.62,94.62H274.81z"/>
		</g>
		<g>
			<path class="st1" d="M804.42,405.23c1.29,0,2.31,1.01,2.31,2.31v373.85c0,35.63-28.99,64.62-64.62,64.62H274.81
				c-35.63,0-64.62-28.99-64.62-64.62V407.54c0-1.29,1.01-2.31,2.31-2.31H804.42 M804.42,345.23H212.5
				c-34.41,0-62.31,27.9-62.31,62.31v373.85c0,68.82,55.79,124.62,124.62,124.62h467.31c68.82,0,124.62-55.79,124.62-124.62V407.54
				C866.73,373.13,838.84,345.23,804.42,345.23L804.42,345.23z"/>
		</g>
	</g>
	<g id="椭圆_11">
		<g>
			<path class="st2" d="M601.92,284.08c-43.58,0-79.04-35.46-79.04-79.04c0-43.58,35.46-79.04,79.04-79.04s79.04,35.46,79.04,79.04
				C680.96,248.62,645.5,284.08,601.92,284.08z"/>
		</g>
		<g>
			<path class="st1" d="M601.92,156c27.04,0,49.04,22,49.04,49.04s-22,49.04-49.04,49.04s-49.04-22-49.04-49.04
				S574.88,156,601.92,156 M601.92,96c-60.22,0-109.04,48.82-109.04,109.04s48.82,109.04,109.04,109.04s109.04-48.82,109.04-109.04
				S662.14,96,601.92,96L601.92,96z"/>
		</g>
	</g>
	<g id="椭圆_11_拷贝">
		<g>
			<path class="st2" d="M430.58,284.08c-43.58,0-79.04-35.46-79.04-79.04c0-43.58,35.46-79.04,79.04-79.04
				c43.58,0,79.04,35.46,79.04,79.04C509.62,248.62,474.16,284.08,430.58,284.08z"/>
		</g>
		<g>
			<path class="st1" d="M430.58,156c27.04,0,49.04,22,49.04,49.04s-22,49.04-49.04,49.04s-49.04-22-49.04-49.04
				S403.54,156,430.58,156 M430.58,96c-60.22,0-109.04,48.82-109.04,109.04s48.82,109.04,109.04,109.04s109.04-48.82,109.04-109.04
				S490.8,96,430.58,96L430.58,96z"/>
		</g>
	</g>
	<g id="圆角矩形_12_拷贝_2_2_">
		<g>
			<path class="st2" d="M150.19,455.42c-17.81,0-32.31-14.49-32.31-32.31v-93.46c0-17.81,14.49-32.31,32.31-32.31h716.54
				c17.81,0,32.31,14.49,32.31,32.31v93.46c0,17.81-14.49,32.31-32.31,32.31H150.19z"/>
		</g>
		<g>
			<path class="st1" d="M866.73,327.35c1.29,0,2.31,1.01,2.31,2.31v93.46c0,1.29-1.01,2.31-2.31,2.31H150.19
				c-1.29,0-2.31-1.01-2.31-2.31v-93.46c0-1.29,1.01-2.31,2.31-2.31H866.73 M866.73,267.35H150.19c-34.41,0-62.31,27.89-62.31,62.31
				v93.46c0,34.41,27.9,62.31,62.31,62.31h716.54c34.41,0,62.31-27.89,62.31-62.31v-93.46
				C929.04,295.24,901.14,267.35,866.73,267.35L866.73,267.35z"/>
		</g>
	</g>
	<g id="圆角矩形_12_拷贝_3">
		<g>
			<path class="st1" d="M516.25,876L516.25,876z"/>
		</g>
		<g>
			<path class="st1" d="M516.25,220.62c-16.57,0-30,10.46-30,23.37v638.65c0,12.9,13.43,23.36,30,23.36s30-10.46,30-23.36V243.98
				C546.25,231.08,532.82,220.62,516.25,220.62L516.25,220.62z"/>
		</g>
	</g>
</g>
</svg>
