<?xml version="1.0" encoding="utf-8"?>
<!-- Generator: Adobe Illustrator 23.0.0, SVG Export Plug-In . SVG Version: 6.00 Build 0)  -->
<svg version="1.1" xmlns="http://www.w3.org/2000/svg" xmlns:xlink="http://www.w3.org/1999/xlink" x="0px" y="0px"
	 viewBox="0 0 1024 1024" style="enable-background:new 0 0 1024 1024;" xml:space="preserve">
<style type="text/css">
	.st0{fill:#FFD948;}
	.st1{fill:#333333;}
</style>
<g id="图层_1">
	<g id="形状_3">
		<g>
			<path class="st0" d="M869.96,556.41c-0.39-7.69-3.82-14.91-9.55-20.07l-310.7-298.85v-0.03c-22.09-20.03-55.77-20.03-77.86,0
				L157.03,536.33c-11.73,10.78-12.59,28.99-1.92,40.82c10.67,11.84,28.88,12.86,40.81,2.31l5.01-4.75v281.35
				c-0.02,15.41,6.09,30.21,16.99,41.11c10.9,10.91,25.68,17.03,41.1,17.03h503.45c15.42,0.01,30.21-6.12,41.11-17.02
				c10.9-10.91,17.01-25.7,16.99-41.12V578.52c12.9,11.67,31.21,10.78,41.95-1.18C867.68,571.63,870.36,564.09,869.96,556.41z"/>
		</g>
	</g>
	<g id="形状_3_拷贝">
		<g>
			<path class="st1" d="M510.78,146c13.94,0,27.89,5.01,38.93,15.02v0.01l310.7,298.86c5.72,5.15,9.15,12.37,9.55,20.06
				c0.4,7.69-2.29,15.23-7.45,20.94c-5.6,6.24-13.26,9.47-21.14,9.47c-7.22,0-14.63-2.71-20.8-8.29V810.2
				c0.02,15.42-6.1,30.21-17,41.12c-10.89,10.9-25.66,17.03-41.07,17.03c-0.01,0-0.03,0-0.04,0H259.01
				c-15.42,0-30.2-6.13-41.1-17.04c-10.9-10.9-17-25.69-16.99-41.11V498.27l-5.01,4.76c-5.52,4.88-12.38,7.28-19.23,7.28
				c-7.94,0-15.85-3.24-21.59-9.6c-10.67-11.83-9.81-30.04,1.92-40.81l314.83-298.88C482.9,151.01,496.84,146,510.78,146 M510.78,86
				c-29.35,0-57.49,10.86-79.24,30.58c-0.34,0.3-0.67,0.62-1,0.93L116.08,416.04c-17.18,15.95-27.24,37.61-28.35,61.04
				c-1.11,23.6,6.99,46.27,22.82,63.81c8.53,9.46,18.92,16.88,30.37,21.9v247.4c-0.01,15.58,3,30.77,8.95,45.16
				c5.96,14.42,14.57,27.33,25.6,38.36c11,11.02,23.9,19.65,38.31,25.62c14.41,5.97,29.62,9,45.22,9h503.45
				c15.64,0,30.85-3.03,45.26-9.01c14.39-5.97,27.27-14.58,38.28-25.6c11.04-11.05,19.65-23.95,25.6-38.36
				c5.95-14.4,8.96-29.59,8.96-45.17h0V561.18c9.96-4.93,19.01-11.75,26.59-20.19c15.87-17.64,23.94-40.4,22.72-64.1
				c-1.18-23.03-11.52-45.1-28.42-60.74L592.04,118.5c-0.66-0.65-1.33-1.29-2.02-1.92C568.28,96.86,540.14,86,510.78,86L510.78,86z"
				/>
		</g>
	</g>
	<g id="圆角矩形_6">
		<g>
			<path class="st1" d="M508.91,599.29h-0.21c-59.12,0-107.05,47.93-107.05,107.05v213.2h214.3v-213.2
				C615.96,647.22,568.03,599.29,508.91,599.29z"/>
		</g>
	</g>
</g>
<g id="参考线">
</g>
</svg>
