<?xml version="1.0" encoding="utf-8"?>
<!-- Generator: Adobe Illustrator 23.0.0, SVG Export Plug-In . SVG Version: 6.00 Build 0)  -->
<svg version="1.1" xmlns="http://www.w3.org/2000/svg" xmlns:xlink="http://www.w3.org/1999/xlink" x="0px" y="0px"
	 viewBox="0 0 1024 1024" style="enable-background:new 0 0 1024 1024;" xml:space="preserve">
<style type="text/css">
	.st0{fill:#FFD948;}
	.st1{fill:#333333;}
	.st2{fill:#FFFFFF;}
</style>
<g id="参考线">
</g>
<g id="图层_2">
	<g id="圆角矩形_9_拷贝">
		<g>
			<path class="st0" d="M213.38,879c-52.09,0-94.46-42.38-94.46-94.46V566.73c0-17.77,14.46-32.23,32.23-32.23h6.19l354.44-152.87
				L860.52,534.5h6.29c17.77,0,32.23,14.46,32.23,32.23v217.81c0,52.09-42.38,94.46-94.46,94.46H213.38z"/>
		</g>
		<g>
			<path class="st1" d="M511.69,414.35l331.03,145.1l11.52,5.05h12.57c1.25,0,2.23,0.98,2.23,2.23v217.81
				c0,35.54-28.92,64.46-64.46,64.46H213.38c-35.54,0-64.46-28.92-64.46-64.46V566.73c0-1.25,0.98-2.23,2.23-2.23h12.39l11.38-4.9
				L511.69,414.35 M511.88,348.92L151.15,504.5c-34.37,0-62.23,27.86-62.23,62.23v217.81c0,68.74,55.72,124.46,124.46,124.46h591.19
				c68.74,0,124.46-55.72,124.46-124.46V566.73c0-34.37-27.86-62.23-62.23-62.23L511.88,348.92L511.88,348.92z"/>
		</g>
	</g>
	<g id="圆角矩形_10">
		<g>
			<path class="st2" d="M260.06,692.31c-17.77,0-32.23-14.46-32.23-32.23V162.23c0-17.77,14.46-32.23,32.23-32.23H757.9
				c17.77,0,32.23,14.46,32.23,32.23v497.84c0,17.77-14.46,32.23-32.23,32.23H260.06z"/>
		</g>
		<g>
			<path class="st1" d="M757.9,160c1.25,0,2.23,0.98,2.23,2.23v497.85c0,1.25-0.98,2.23-2.23,2.23H260.06
				c-1.25,0-2.23-0.98-2.23-2.23V162.23c0-1.25,0.98-2.23,2.23-2.23H757.9 M757.9,100H260.06c-34.37,0-62.23,27.86-62.23,62.23
				v497.85c0,34.37,27.86,62.23,62.23,62.23H757.9c34.37,0,62.23-27.86,62.23-62.23V162.23C820.13,127.86,792.27,100,757.9,100
				L757.9,100z"/>
		</g>
	</g>
	<g id="圆角矩形_9">
		<g>
			<path class="st0" d="M213.38,879c-52.09,0-94.46-42.38-94.46-94.46V566.73c0-16,11.71-29.31,27.01-31.81l366.04,157.87
				L872.1,534.93c15.26,2.53,26.94,15.83,26.94,31.8v217.81c0,52.09-42.38,94.46-94.46,94.46H213.38z"/>
		</g>
		<g>
			<path class="st1" d="M148.92,568.88l339.2,146.29l23.95,10.33l23.9-10.47l333.07-146v215.5c0,35.54-28.92,64.46-64.46,64.46
				H213.38c-35.54,0-64.46-28.92-64.46-64.46V568.88 M866.81,504.5L511.88,660.08L151.15,504.5c-34.37,0-62.23,27.86-62.23,62.23
				v217.81c0,68.74,55.72,124.46,124.46,124.46h591.19c68.74,0,124.46-55.72,124.46-124.46V566.73
				C929.04,532.36,901.18,504.5,866.81,504.5L866.81,504.5z"/>
		</g>
	</g>
	<g id="圆角矩形_11">
		<g>
			<path class="st0" d="M672.34,271.13H345.62c-12.89,0-23.34,10.45-23.34,23.34s10.45,23.34,23.34,23.34h326.71
				c12.89,0,23.34-10.45,23.34-23.34S685.22,271.13,672.34,271.13z"/>
		</g>
		<g>
			<path class="st1" d="M672.34,271.13H345.63c-12.89,0-23.34,10.45-23.34,23.34s10.45,23.34,23.34,23.34h326.71
				c12.89,0,23.34-10.45,23.34-23.34S685.23,271.13,672.34,271.13L672.34,271.13z"/>
		</g>
	</g>
	<g id="圆角矩形_11_拷贝">
		<g>
			<path class="st0" d="M516.76,395.6H345.62c-12.89,0-23.34,10.45-23.34,23.34c0,12.89,10.45,23.34,23.34,23.34h171.13
				c12.89,0,23.34-10.45,23.34-23.34C540.1,406.04,529.65,395.6,516.76,395.6z"/>
		</g>
		<g>
			<path class="st1" d="M516.76,395.6H345.62c-12.89,0-23.34,10.45-23.34,23.34s10.45,23.34,23.34,23.34h171.14
				c12.89,0,23.34-10.45,23.34-23.34S529.65,395.6,516.76,395.6L516.76,395.6z"/>
		</g>
	</g>
</g>
</svg>
