<?xml version="1.0" encoding="utf-8"?>
<!-- Generator: Adobe Illustrator 23.0.0, SVG Export Plug-In . SVG Version: 6.00 Build 0)  -->
<svg version="1.1" xmlns="http://www.w3.org/2000/svg" xmlns:xlink="http://www.w3.org/1999/xlink" x="0px" y="0px"
	 viewBox="0 0 1024 1024" style="enable-background:new 0 0 1024 1024;" xml:space="preserve">
<style type="text/css">
	.st0{fill:#FFD948;}
	.st1{fill:#333333;}
	.st2{fill-rule:evenodd;clip-rule:evenodd;fill:#FFD948;}
</style>
<g id="参考线">
</g>
<g id="图层_2">
	<g id="圆角矩形_2_拷贝_2">
		<g>
			<path class="st0" d="M145.76,811.72c-13.16-2.27-23.2-13.76-23.2-27.56V320.47c0-15.42,12.54-27.96,27.96-27.96h724.52
				c15.42,0,27.96,12.54,27.96,27.96v463.69c0,13.79-10.04,25.29-23.2,27.56L523.92,669.36c-3.58-1.43-7.36-2.15-11.14-2.15
				s-7.57,0.72-11.14,2.15L145.76,811.72z"/>
		</g>
		<g>
			<path class="st1" d="M873,322.51v454.18L535.06,641.51c-7.15-2.86-14.72-4.29-22.28-4.29s-15.13,1.43-22.28,4.29L152.56,776.68
				V322.51H873 M875.04,262.51H150.52c-32.01,0-57.96,25.95-57.96,57.96v463.69c0,32.01,25.95,57.96,57.96,57.96l362.26-144.9
				l362.26,144.9c32.01,0,57.96-25.95,57.96-57.96V320.47C933,288.46,907.05,262.51,875.04,262.51L875.04,262.51z"/>
		</g>
	</g>
	<g id="椭圆_2">
		<g>
			<circle class="st0" cx="614.21" cy="436.39" r="45"/>
		</g>
		<g>
			<path class="st1" d="M614.21,421.39c8.27,0,15,6.73,15,15s-6.73,15-15,15s-15-6.73-15-15S605.94,421.39,614.21,421.39
				 M614.21,361.39c-41.42,0-75,33.58-75,75s33.58,75,75,75s75-33.58,75-75S655.63,361.39,614.21,361.39L614.21,361.39z"/>
		</g>
	</g>
	<g id="椭圆_2_拷贝">
		<g>
			<path class="st0" d="M759.12,597.32c-24.81,0-45-20.19-45-45s20.19-45,45-45s45,20.19,45,45S783.93,597.32,759.12,597.32z"/>
		</g>
		<g>
			<path class="st1" d="M759.12,537.32c8.27,0,15,6.73,15,15s-6.73,15-15,15s-15-6.73-15-15S750.84,537.32,759.12,537.32
				 M759.12,477.32c-41.42,0-75,33.58-75,75s33.58,75,75,75s75-33.58,75-75S800.54,477.32,759.12,477.32L759.12,477.32z"/>
		</g>
	</g>
	<g id="圆角矩形_3_拷贝">
		<g>
			<path class="st2" d="M331.65,502.66c-0.34-0.36-0.7-0.71-1.06-1.06c0.36-0.34,0.71-0.7,1.06-1.06c0.34,0.36,0.7,0.71,1.06,1.06
				C332.35,501.94,331.99,502.3,331.65,502.66z"/>
		</g>
		<g>
			<path class="st1" d="M331.65,392.92c-12,0-21.74,9.73-21.74,21.74v65.21h-65.21c-12,0-21.74,9.73-21.74,21.74
				c0,12,9.73,21.74,21.74,21.74h65.21v65.21c0,12,9.73,21.74,21.74,21.74c12,0,21.74-9.73,21.74-21.74v-65.21h65.21
				c12,0,21.74-9.73,21.74-21.74c0-12-9.73-21.74-21.74-21.74h-65.21v-65.21C353.39,402.65,343.65,392.92,331.65,392.92
				L331.65,392.92z"/>
		</g>
	</g>
	<g id="圆角矩形_3_拷贝_2">
		<g>
			<path class="st0" d="M505.53,275.98L505.53,275.98z"/>
		</g>
		<g>
			<path class="st1" d="M505.53,161.07c-16.57,0-30,9.73-30,21.74v101.43c0,12,13.43,21.74,30,21.74s30-9.73,30-21.74V182.81
				C535.53,170.81,522.1,161.07,505.53,161.07L505.53,161.07z"/>
		</g>
	</g>
</g>
</svg>
