<?xml version="1.0" encoding="utf-8"?>
<!-- Generator: Adobe Illustrator 23.0.0, SVG Export Plug-In . SVG Version: 6.00 Build 0)  -->
<svg version="1.1" xmlns="http://www.w3.org/2000/svg" xmlns:xlink="http://www.w3.org/1999/xlink" x="0px" y="0px"
	 viewBox="0 0 1024 1024" style="enable-background:new 0 0 1024 1024;" xml:space="preserve">
<style type="text/css">
	.st0{fill:#FFD948;}
	.st1{fill:#333333;}
</style>
<g id="参考线">
</g>
<g id="图层_2">
	<g id="椭圆_2_拷贝_2">
		<g>
			<path class="st0" d="M438.9,813c-84.82,0-164.56-33.03-224.54-93.01c-59.98-59.98-93.01-139.72-93.01-224.54
				c0-84.82,33.03-164.56,93.01-224.54c59.98-59.98,139.72-93.01,224.54-93.01c77.62,0,152.33,28.3,210.38,79.68
				c1.63,1.45,2.78,2.81,2.62,7.23c-0.31,8.98-7.74,44.51-90.27,124.53c-47.03,45.6-94.21,81.97-94.68,82.33
				c-7.36,5.66-11.69,14.41-11.72,23.69c-0.03,9.29,4.25,18.06,11.57,23.77c0.47,0.36,47.74,37.3,94.43,83.25
				c81.6,80.3,88.75,115.98,88.99,125c0.13,4.65-1.12,6.1-2.89,7.65C589.6,785.31,515.57,813,438.9,813z"/>
		</g>
		<g>
			<path class="st1" d="M438.9,207.9c35.76,0,70.63,6.47,103.63,19.22c27.75,10.73,53.48,25.6,76.66,44.29
				c-5.91,13.34-24.23,44.13-80.29,98.18c-44.95,43.34-89.79,77.96-90.22,78.29c-14.72,11.31-23.36,28.81-23.43,47.37
				c-0.06,18.56,8.48,36.12,23.12,47.53c0.45,0.35,45.12,35.27,89.79,78.96c55.94,54.71,73.85,85.68,79.53,98.95
				c-23.11,18.38-48.7,32.99-76.26,43.51C508.75,776.68,474.26,783,438.9,783c-38.85,0-76.5-7.59-111.91-22.57
				c-34.24-14.48-64.99-35.22-91.42-61.65c-26.43-26.43-47.17-57.19-61.65-91.42c-14.98-35.41-22.57-73.06-22.57-111.91
				s7.59-76.5,22.57-111.91c14.48-34.24,35.22-64.99,61.65-91.42s57.19-47.17,91.42-61.65C362.4,215.49,400.05,207.9,438.9,207.9
				 M438.9,147.9c-191.95,0-347.55,155.6-347.55,347.55S246.95,843,438.9,843c87.31,0,167.1-32.19,228.15-85.36
				c73.16-63.72-181.81-262.19-181.81-262.19S741.1,298.79,669.16,235.11C607.85,180.84,527.22,147.9,438.9,147.9L438.9,147.9z"/>
		</g>
	</g>
	<g id="椭圆_2_拷贝_2_2_">
		<g>
			<path class="st1" d="M404.14,297.18c-25.97,0-47.02,21.05-47.02,47.02s21.05,47.02,47.02,47.02c25.97,0,47.02-21.05,47.02-47.02
				S430.12,297.18,404.14,297.18z"/>
		</g>
	</g>
	<g id="椭圆_2_拷贝_3">
		<g>
			<circle class="st0" cx="659.02" cy="507.03" r="54.64"/>
		</g>
		<g>
			<path class="st1" d="M659.02,482.39c13.59,0,24.64,11.05,24.64,24.64s-11.05,24.64-24.64,24.64s-24.64-11.05-24.64-24.64
				S645.43,482.39,659.02,482.39 M659.02,422.39c-46.75,0-84.64,37.9-84.64,84.64s37.9,84.64,84.64,84.64s84.64-37.9,84.64-84.64
				S705.76,422.39,659.02,422.39L659.02,422.39z"/>
		</g>
	</g>
	<g id="椭圆_2_拷贝_4">
		<g>
			<circle class="st0" cx="843.21" cy="507.03" r="54.64"/>
		</g>
		<g>
			<path class="st1" d="M843.21,482.39c13.59,0,24.64,11.05,24.64,24.64s-11.05,24.64-24.64,24.64s-24.64-11.05-24.64-24.64
				S829.62,482.39,843.21,482.39 M843.21,422.39c-46.75,0-84.64,37.9-84.64,84.64s37.9,84.64,84.64,84.64s84.64-37.9,84.64-84.64
				S889.95,422.39,843.21,422.39L843.21,422.39z"/>
		</g>
	</g>
</g>
</svg>
