<?xml version="1.0" encoding="utf-8"?>
<!-- Generator: Adobe Illustrator 23.0.0, SVG Export Plug-In . SVG Version: 6.00 Build 0)  -->
<svg version="1.1" xmlns="http://www.w3.org/2000/svg" xmlns:xlink="http://www.w3.org/1999/xlink" x="0px" y="0px"
	 viewBox="0 0 1024 1024" style="enable-background:new 0 0 1024 1024;" xml:space="preserve">
<style type="text/css">
	.st0{fill:#FFD948;}
	.st1{fill:#333333;}
</style>
<g id="参考线">
</g>
<g id="图层_2">
	<g id="圆角矩形_1">
		<g>
			<circle class="st0" cx="238.46" cy="239.67" r="117.22"/>
		</g>
		<g>
			<path class="st1" d="M238.46,152.45c48.09,0,87.22,39.13,87.22,87.22s-39.13,87.22-87.22,87.22s-87.22-39.13-87.22-87.22
				S190.37,152.45,238.46,152.45 M238.46,92.45c-81.31,0-147.22,65.91-147.22,147.22s65.91,147.22,147.22,147.22
				s147.22-65.91,147.22-147.22S319.77,92.45,238.46,92.45L238.46,92.45z"/>
		</g>
	</g>
	<g id="圆角矩形_1_拷贝">
		<g>
			<circle class="st0" cx="584.88" cy="272.66" r="68.15"/>
		</g>
		<g>
			<path class="st1" d="M584.88,234.51c21.04,0,38.15,17.11,38.15,38.15s-17.11,38.15-38.15,38.15s-38.15-17.11-38.15-38.15
				S563.84,234.51,584.88,234.51 M584.88,174.51c-54.21,0-98.15,43.94-98.15,98.15c0,54.2,43.94,98.15,98.15,98.15
				s98.15-43.94,98.15-98.15C683.02,218.46,639.08,174.51,584.88,174.51L584.88,174.51z"/>
		</g>
	</g>
	<g id="圆角矩形_2_拷贝">
		<g>
			<path class="st0" d="M662.56,684.15L872,567.22c16.66,3.14,29.29,17.8,29.29,35.36v164.96c0,17.52-12.59,32.16-29.2,35.34
				L662.56,684.15z"/>
		</g>
		<g>
			<path class="st1" d="M871.26,601.99c0.02,0.19,0.03,0.39,0.03,0.59v164.96c0,0.13,0,0.27-0.01,0.4l-147.52-83.6L871.26,601.99
				 M865.31,536.6L601.37,683.96l263.93,149.57c36.44,0,65.98-29.54,65.98-65.98V602.58C931.29,566.14,901.75,536.6,865.31,536.6
				L865.31,536.6z"/>
		</g>
	</g>
	<g id="圆角矩形_2">
		<g>
			<path class="st0" d="M155.98,886c-19.84,0-35.98-16.14-35.98-35.98V520.1c0-19.84,16.14-35.98,35.98-35.98h527.87
				c19.84,0,35.98,16.14,35.98,35.98v329.92c0,19.84-16.14,35.98-35.98,35.98H155.98z"/>
		</g>
		<g>
			<path class="st1" d="M683.85,514.12c3.3,0,5.98,2.68,5.98,5.98v329.92c0,3.3-2.68,5.98-5.98,5.98H155.98
				c-3.3,0-5.98-2.68-5.98-5.98V520.1c0-3.3,2.68-5.98,5.98-5.98H683.85 M683.85,454.12H155.98c-36.44,0-65.98,29.54-65.98,65.98
				v329.92c0,36.44,29.54,65.98,65.98,65.98h527.87c36.44,0,65.98-29.54,65.98-65.98V520.1
				C749.83,483.66,720.29,454.12,683.85,454.12L683.85,454.12z"/>
		</g>
	</g>
</g>
</svg>
