<?xml version="1.0" encoding="utf-8"?>
<!-- Generator: Adobe Illustrator 23.0.0, SVG Export Plug-In . SVG Version: 6.00 Build 0)  -->
<svg version="1.1" xmlns="http://www.w3.org/2000/svg" xmlns:xlink="http://www.w3.org/1999/xlink" x="0px" y="0px"
	 viewBox="0 0 1024 1024" style="enable-background:new 0 0 1024 1024;" xml:space="preserve">
<style type="text/css">
	.st0{display:none;}
	.st1{display:inline;}
	.st2{fill:#FFD948;}
	.st3{fill:#333333;}
	.st4{fill:none;stroke:#333333;stroke-width:60;stroke-miterlimit:100;}
</style>
<g id="图层_1" class="st0">
	<g id="参考线" class="st1">
	</g>
	<g class="st1">
		<g id="圆角矩形_1">
			<g>
				<circle class="st2" cx="238.5" cy="239.7" r="117.2"/>
			</g>
			<g>
				<path class="st3" d="M238.5,152.4c48.1,0,87.2,39.1,87.2,87.2s-39.1,87.2-87.2,87.2s-87.2-39.1-87.2-87.2
					S190.4,152.4,238.5,152.4 M238.5,92.4c-81.3,0-147.2,65.9-147.2,147.2s65.9,147.2,147.2,147.2S385.7,321,385.7,239.7
					S319.8,92.4,238.5,92.4L238.5,92.4z"/>
			</g>
		</g>
		<g id="圆角矩形_1_拷贝">
			<g>
				<circle class="st2" cx="584.9" cy="272.7" r="68.2"/>
			</g>
			<g>
				<path class="st3" d="M584.9,234.5c21,0,38.2,17.1,38.2,38.2s-17.1,38.1-38.2,38.1s-38.2-17.1-38.2-38.1S563.8,234.5,584.9,234.5
					 M584.9,174.5c-54.2,0-98.1,43.9-98.1,98.2c0,54.2,43.9,98.1,98.1,98.1s98.2-43.9,98.2-98.1C683,218.5,639.1,174.5,584.9,174.5
					L584.9,174.5z"/>
			</g>
		</g>
		<g id="圆角矩形_2_拷贝">
			<g>
				<path class="st2" d="M662.6,684.2L872,567.2c16.7,3.1,29.3,17.8,29.3,35.4v165c0,17.5-12.6,32.2-29.2,35.3L662.6,684.2z"/>
			</g>
			<g>
				<path class="st3" d="M871.3,602c0,0.2,0,0.4,0,0.6v165c0,0.1,0,0.3,0,0.4l-147.5-83.6L871.3,602 M865.3,536.6L601.4,684
					l263.9,149.6c36.4,0,66-29.5,66-66v-165C931.3,566.1,901.8,536.6,865.3,536.6L865.3,536.6z"/>
			</g>
		</g>
		<g id="圆角矩形_2">
			<g>
				<path class="st2" d="M156,886c-19.8,0-36-16.1-36-36V520.1c0-19.8,16.1-36,36-36h527.9c19.8,0,36,16.1,36,36V850
					c0,19.8-16.1,36-36,36H156z"/>
			</g>
			<g>
				<path class="st3" d="M683.8,514.1c3.3,0,6,2.7,6,6V850c0,3.3-2.7,6-6,6H156c-3.3,0-6-2.7-6-6V520.1c0-3.3,2.7-6,6-6H683.8
					 M683.8,454.1H156c-36.4,0-66,29.5-66,66V850c0,36.4,29.5,66,66,66h527.9c36.4,0,66-29.5,66-66V520.1
					C749.8,483.7,720.3,454.1,683.8,454.1L683.8,454.1z"/>
			</g>
		</g>
	</g>
</g>
<g id="图层_2">
	<g id="形状_1">
		<g>
			<path class="st2" d="M908.2,769.9c-7.9-7.8-17.3-8.3-25.3-0.8c-4.4,4.2-8.8,8.4-12.7,13.1c-3.8,4.6-6.4,4.8-10.7,0.2
				c-32.4-34-65-67.7-97.8-101.3c-4.9-5-4-7.4,0.3-11.8c14.9-15,29.4-30.4,44.1-45.5c7.1-6.9,11-16.4,10.8-26.3
				c-0.1-12.3-3.6-18.4-19.5-34.6c-16.5-16.8-35.6-16.8-51.9-0.1c-16.7,17.2-33.4,34.5-50,51.8c-42.8,44.3-85.6,88.6-128.3,133
				c-16.2,16.8-16,36.9,0.1,53.9l5.2,5.4c19.7,20.4,37.3,20.3,57.2-0.3c13-13.4,26.2-26.5,38.7-40.4c5.5-6,8.5-6.6,14.6-0.2
				c28.5,30.2,57.5,60,86.4,89.9c14.7,15.2,14.7,15.2-0.2,30.9c-1,1-2.1,2-3,3.1c-7.4,8.7-7.2,17.7,0.7,26.2c8,8.8,18.1,10.2,26,2.1
				c39.3-40.3,78.3-80.7,117.2-121.4C918.1,788.4,917,778.6,908.2,769.9z M278.7,563.1c-16.4-17-35.5-17-52-0.4
				c-2.8,2.8-5.5,5.6-8.2,8.5c-15.6,16.6-15.7,36.7-0.1,53.1c14.3,15.1,28.6,30.2,43.4,44.8c5.1,5,4.8,7.6-0.1,12.6
				c-28.3,28.9-56.3,58.1-84.5,87.3c-5.7,5.9-11,15.5-17.5,16.5c-6.9,1.1-11.5-10.2-17.6-15.4l-0.7-0.7c-8.5-7.9-17.9-7.5-26.1,1
				c-8.4,8.8-9.2,18.3-0.9,26.9c38.6,40.4,77.5,80.6,116.5,120.7c7.9,8.1,17.9,7,26-1.6c7.9-8.4,8.4-17.8,1.1-26.2
				c-4.2-4.9-8.7-9.6-13.5-13.9c-4.2-3.7-3.9-6.1,0-10.1c33-33.9,65.8-67.9,98.5-102.1c4.4-4.6,6.7-3.9,10.7,0.3
				c14.5,15.4,29.3,30.5,43.9,45.8c7,7.3,15,11.8,25.2,11.6c12.3,0,17.6-3.1,33.5-19.9c16.7-17.5,16.7-37.2-0.1-54.7
				C397.1,685.8,337.9,624.4,278.7,563.1z M597.1,679.3c27.1-28.6,54.5-57,82.1-85.1c5.1-5.2,4.4-8,0-12.9c-17.8-20.2-35-41-53-60.9
				c-6-6.7-5.4-9.8,1.1-15.7c76.9-70.6,153.4-141.6,230.2-212.4c10.7-9.9,17.4-21.5,18.7-36.6c3.7-43.6,7.6-87.1,11.7-130.6
				c0.7-7-0.5-9.4-8-8.6c-42.7,4.3-85.5,7.9-128.2,12c-13.5,1.3-24.3,8.3-33.4,18.9c-66.1,77.1-132.5,154-198.5,231.3
				c-6.3,7.3-9,7.5-15.3,0c-66.5-77.8-133.3-155.2-200-232.9c-8.6-10-19.1-16.2-31.8-17.5c-42.4-4.1-84.8-7.9-129-11.9
				c-5.6-2.2-8.2,0.1-7.4,8.4c4.1,42.8,7.8,85.7,11.4,128.5c1.3,16.1,8.1,28.7,19.8,39.5c76.8,70.7,153.4,141.7,230.3,212.4
				c5.6,5.1,6.7,7.8,1.1,14.1c-18.5,20.5-36,41.9-54.4,62.5c-4.4,5-4.1,7.5,0.5,12.1c27.1,27.6,54,55.5,80.6,83.6
				c5.5,5.9,8.7,6.6,14.8,0.7c21.7-20.8,44.1-40.8,65.9-61.4c4.5-4.3,7-4.8,11.9-0.2c22.3,21.2,45.1,41.8,67.5,62.9
				C590,683.8,592.5,684.1,597.1,679.3z"/>
		</g>
		<g>
			<path class="st4" d="M908.2,769.9c-7.9-7.8-17.3-8.3-25.3-0.8c-4.4,4.2-8.8,8.4-12.7,13.1c-3.8,4.6-6.4,4.8-10.7,0.2
				c-32.4-34-65-67.7-97.8-101.3c-4.9-5-4-7.4,0.3-11.8c14.9-15,29.4-30.4,44.1-45.5c7.1-6.9,11-16.4,10.8-26.3
				c-0.1-12.3-3.6-18.4-19.5-34.6c-16.5-16.8-35.6-16.8-51.9-0.1c-16.7,17.2-33.4,34.5-50,51.8c-42.8,44.3-85.6,88.6-128.3,133
				c-16.2,16.8-16,36.9,0.1,53.9l5.2,5.4c19.7,20.4,37.3,20.3,57.2-0.3c13-13.4,26.2-26.5,38.7-40.4c5.5-6,8.5-6.6,14.6-0.2
				c28.5,30.2,57.5,60,86.4,89.9c14.7,15.2,14.7,15.2-0.2,30.9c-1,1-2.1,2-3,3.1c-7.4,8.7-7.2,17.7,0.7,26.2c8,8.8,18.1,10.2,26,2.1
				c39.3-40.3,78.3-80.7,117.2-121.4C918.1,788.4,917,778.6,908.2,769.9z M278.7,563.1c-16.4-17-35.5-17-52-0.4
				c-2.8,2.8-5.5,5.6-8.2,8.5c-15.6,16.6-15.7,36.7-0.1,53.1c14.3,15.1,28.6,30.2,43.4,44.8c5.1,5,4.8,7.6-0.1,12.6
				c-28.3,28.9-56.3,58.1-84.5,87.3c-5.7,5.9-11,15.5-17.5,16.5c-6.9,1.1-11.5-10.2-17.6-15.4l-0.7-0.7c-8.5-7.9-17.9-7.5-26.1,1
				c-8.4,8.8-9.2,18.3-0.9,26.9c38.6,40.4,77.5,80.6,116.5,120.7c7.9,8.1,17.9,7,26-1.6c7.9-8.4,8.4-17.8,1.1-26.2
				c-4.2-4.9-8.7-9.6-13.5-13.9c-4.2-3.7-3.9-6.1,0-10.1c33-33.9,65.8-67.9,98.5-102.1c4.4-4.6,6.7-3.9,10.7,0.3
				c14.5,15.4,29.3,30.5,43.9,45.8c7,7.3,15,11.8,25.2,11.6c12.3,0,17.6-3.1,33.5-19.9c16.7-17.5,16.7-37.2-0.1-54.7
				C397.1,685.8,337.9,624.4,278.7,563.1z M597.1,679.3c27.1-28.6,54.5-57,82.1-85.1c5.1-5.2,4.4-8,0-12.9c-17.8-20.2-35-41-53-60.9
				c-6-6.7-5.4-9.8,1.1-15.7c76.9-70.6,153.4-141.6,230.2-212.4c10.7-9.9,17.4-21.5,18.7-36.6c3.7-43.6,7.6-87.1,11.7-130.6
				c0.7-7-0.5-9.4-8-8.6c-42.7,4.3-85.5,7.9-128.2,12c-13.5,1.3-24.3,8.3-33.4,18.9c-66.1,77.1-132.5,154-198.5,231.3
				c-6.3,7.3-9,7.5-15.3,0c-66.5-77.8-133.3-155.2-200-232.9c-8.6-10-19.1-16.2-31.8-17.5c-42.4-4.1-84.8-7.9-129-11.9
				c-5.6-2.2-8.2,0.1-7.4,8.4c4.1,42.8,7.8,85.7,11.4,128.5c1.3,16.1,8.1,28.7,19.8,39.5c76.8,70.7,153.4,141.7,230.3,212.4
				c5.6,5.1,6.7,7.8,1.1,14.1c-18.5,20.5-36,41.9-54.4,62.5c-4.4,5-4.1,7.5,0.5,12.1c27.1,27.6,54,55.5,80.6,83.6
				c5.5,5.9,8.7,6.6,14.8,0.7c21.7-20.8,44.1-40.8,65.9-61.4c4.5-4.3,7-4.8,11.9-0.2c22.3,21.2,45.1,41.8,67.5,62.9
				C590,683.8,592.5,684.1,597.1,679.3z"/>
		</g>
	</g>
</g>
</svg>
