<?xml version="1.0" encoding="utf-8"?>
<!-- Generator: Adobe Illustrator 23.0.0, SVG Export Plug-In . SVG Version: 6.00 Build 0)  -->
<svg version="1.1" id="图层_1" xmlns="http://www.w3.org/2000/svg" xmlns:xlink="http://www.w3.org/1999/xlink" x="0px" y="0px"
	 viewBox="0 0 1024 1024" style="enable-background:new 0 0 1024 1024;" xml:space="preserve">
<style type="text/css">
	.st0{fill:#333333;}
</style>
<g id="椭圆_5_拷贝">
	<g>
		<path class="st0" d="M512.19,162.48c192.65,0,348.82,156.17,348.82,348.82S704.84,860.13,512.19,860.13
			S163.37,703.96,163.37,511.31S319.54,162.48,512.19,162.48 M512.19,102.48c-55.16,0-108.71,10.82-159.15,32.15
			c-48.69,20.59-92.4,50.06-129.93,87.59c-37.53,37.53-67,81.24-87.59,129.93c-21.34,50.44-32.15,103.99-32.15,159.15
			s10.82,108.71,32.15,159.15c20.59,48.69,50.06,92.4,87.59,129.93s81.24,67,129.93,87.59c50.44,21.34,103.99,32.15,159.15,32.15
			s108.71-10.82,159.15-32.15c48.69-20.59,92.4-50.06,129.93-87.59c37.53-37.53,67-81.24,87.59-129.93
			c21.34-50.44,32.15-103.99,32.15-159.15S910.2,402.6,888.86,352.16c-20.59-48.69-50.06-92.4-87.59-129.93
			c-37.53-37.53-81.24-67-129.93-87.59C620.9,113.3,567.36,102.48,512.19,102.48L512.19,102.48z"/>
	</g>
</g>
<g id="椭圆_5">
	<g>
		<path class="st0" d="M597.33,284.33c-78.34,0-141.84,63.51-141.84,141.84c0,78.34,63.51,141.85,141.84,141.85
			c78.34,0,141.84-63.51,141.84-141.85C739.17,347.84,675.67,284.33,597.33,284.33z"/>
	</g>
</g>
</svg>
