<?xml version="1.0" encoding="utf-8"?>
<!-- Generator: Adobe Illustrator 23.0.0, SVG Export Plug-In . SVG Version: 6.00 Build 0)  -->
<svg version="1.1" id="图层_2" xmlns="http://www.w3.org/2000/svg" xmlns:xlink="http://www.w3.org/1999/xlink" x="0px" y="0px"
	 viewBox="0 0 1024 1024" style="enable-background:new 0 0 1024 1024;" xml:space="preserve">
<style type="text/css">
	.st0{fill:#333333;}
</style>
<path class="st0" d="M966,564.8c-2.2-23.1-22.6-40.8-62.2-53.6c-2-46.6-12.1-91.8-30.2-134.6c-19.6-46.3-47.6-87.9-83.4-123.7
	c-35.8-35.8-77.4-63.8-123.7-83.4c-48-20.3-98.9-30.6-151.4-30.6c-52.5,0-103.4,10.3-151.4,30.6c-46.3,19.6-87.9,47.6-123.7,83.4
	c-35.8,35.8-63.8,77.4-83.4,123.7c-20.3,48-30.6,98.9-30.6,151.4c0,17.1,1.1,34.2,3.3,50.9c-17.4,8.7-31.3,17.5-41.2,26.4
	c-15.2,13.6-22.1,28.2-20.7,43.4c2.8,30.3,37.5,51.6,105.6,64.5c17.9,32.9,40.3,63.1,67.1,89.9c35.8,35.8,77.4,63.8,123.7,83.4
	c48,20.3,98.9,30.6,151.4,30.6s103.4-10.3,151.4-30.6c46.3-19.6,87.9-47.6,123.6-83.4c35.7-35.8,63.8-77.4,83.4-123.7
	c5.2-12.1,9.6-24.5,13.5-37C942.7,618.6,968.6,593,966,564.8L966,564.8z M515,186.1c188.6,0,342,153.4,342,342
	c0,31.2-4.2,61.6-12.1,90.4c-7.2,2.5-15,5.2-23.3,7.8c-78.5,24.8-184.3,44.3-298,55c-113.7,10.6-221.4,11-303.1,1.2
	c-3.9-0.5-7.6-0.9-11.3-1.4c-23.2-46-36.1-98-36.1-152.9C173.1,339.5,326.5,186.1,515,186.1L515,186.1z M104.7,645.3
	c-0.3-2.9,5.6-13.3,31.6-27.6c4.2,17.8,9.7,35.2,16.4,52.3C115.2,659.8,105.1,648.7,104.7,645.3L104.7,645.3z M515,870
	c-116.7,0-219.9-58.8-281.7-148.3c36.4,3.7,77.1,5.5,120.7,5.5c54.2,0,112.8-2.8,173.1-8.5c114.5-10.7,221.5-30.3,302-55.3
	C776.6,784.8,655.6,870,515,870L515,870z M898.4,595c2.5-14.5,4.2-29.1,5.1-43.9c19.3,7.8,24.8,14.8,25,17.2
	C928.8,571.3,922.8,581.3,898.4,595L898.4,595z M898.4,595"/>
<path class="st0" d="M273.1,488.8c1.5,0.4,3,0.6,4.4,0.6c8.5,0,16.2-5.7,18.3-14.4c3.4-14.1,8.3-27.9,14.4-41
	c4.4-9.4,0.3-20.6-9.1-25c-9.4-4.4-20.6-0.3-25,9.1c-7.2,15.3-12.8,31.5-16.8,48C256.8,476.1,262.9,486.3,273.1,488.8L273.1,488.8z
	 M319.7,380.8c3.6,3.2,8.1,4.8,12.5,4.8c5.2,0,10.3-2.1,14-6.3C388.5,332,449.1,305,512.3,305c10.4,0,18.8-8.5,18.8-18.8
	c0-10.4-8.5-18.8-18.8-18.8c-37.7,0-74.1,7.9-108.1,23.4c-32.8,15.1-61.8,36.3-86,63.4C311.3,362,311.9,373.8,319.7,380.8
	L319.7,380.8z M319.7,380.8"/>
</svg>
