<?xml version="1.0" encoding="utf-8"?>
<!-- Generator: Adobe Illustrator 23.0.0, SVG Export Plug-In . SVG Version: 6.00 Build 0)  -->
<svg version="1.1" xmlns="http://www.w3.org/2000/svg" xmlns:xlink="http://www.w3.org/1999/xlink" x="0px" y="0px"
	 viewBox="0 0 1024 1024" style="enable-background:new 0 0 1024 1024;" xml:space="preserve">
<style type="text/css">
	.st0{fill:#FFD948;}
	.st1{fill:#333333;}
	.st2{fill:#FFD948;stroke:#333333;stroke-width:60;stroke-linecap:round;stroke-linejoin:round;stroke-miterlimit:100;}
</style>
<g id="参考线">
</g>
<g id="图层_2">
	<g id="椭圆_6_拷贝">
		<g>
			<path class="st0" d="M461.5,232.74c-167.6,0-303.47,147.7-303.47,329.88C158.03,744.81,293.9,791,461.5,791
				s303.47-46.19,303.47-228.38C764.97,380.44,629.1,232.74,461.5,232.74z"/>
		</g>
	</g>
	<g id="椭圆_6">
		<g>
			<path class="st1" d="M461.5,158c42.35,0,83.4,8.28,122.01,24.61c37.32,15.79,70.86,38.4,99.67,67.21
				c28.81,28.81,51.42,62.34,67.21,99.67C766.72,388.1,775,429.15,775,471.5c0,42.35-8.28,83.4-24.61,122.01
				c-15.79,37.32-38.4,70.86-67.21,99.67c-28.81,28.81-62.34,51.42-99.67,67.21C544.9,776.72,503.85,785,461.5,785
				s-83.4-8.28-122.01-24.61c-37.32-15.79-70.86-38.4-99.67-67.21c-28.81-28.81-51.42-62.34-67.21-99.67
				C156.28,554.9,148,513.85,148,471.5c0-42.35,8.28-83.4,24.61-122.01c15.79-37.32,38.4-70.86,67.21-99.67s62.34-51.42,99.67-67.21
				C378.1,166.28,419.15,158,461.5,158 M461.5,98C255.22,98,88,265.22,88,471.5C88,677.78,255.22,845,461.5,845
				S835,677.78,835,471.5C835,265.22,667.78,98,461.5,98L461.5,98z"/>
		</g>
	</g>
	<line class="st2" x1="705.72" y1="716.47" x2="898.63" y2="910.37"/>
</g>
</svg>
