<?xml version="1.0" encoding="utf-8"?>
<!-- Generator: Adobe Illustrator 23.0.0, SVG Export Plug-In . SVG Version: 6.00 Build 0)  -->
<svg version="1.1" id="图层_1" xmlns="http://www.w3.org/2000/svg" xmlns:xlink="http://www.w3.org/1999/xlink" x="0px" y="0px"
	 viewBox="0 0 1024 1024" style="enable-background:new 0 0 1024 1024;" xml:space="preserve">
<style type="text/css">
	.st0{fill:#FFD948;}
	.st1{fill:#333333;}
</style>
<g id="参考线">
</g>
<g>
	<g id="圆角矩形_14">
		<g>
			<path class="st0" d="M180.7,663c-17.8,0-32.2-9.3-32.2-20.7v-300c0-8.9,8.8-16.5,21.1-19.4l127.9,87.7l202.5-140.2l209.2,139.5
				l135.5-87.1c12.6,2.8,21.6,10.5,21.6,19.6v300c0,11.4-14.5,20.7-32.2,20.7H180.7z"/>
		</g>
		<g>
			<path class="st1" d="M500.4,279.8l166,172.1l42.4,44l43.2-43.2l84.3-84.3v446.3c0,1.3-1,2.2-2.2,2.2H180.7c-1.2,0-2.2-1-2.2-2.2
				V371.3l75.1,80.1l44,46.9l43.8-47.1L500.4,279.8 M499.5,192.6L297.3,410.3L180.7,285.9c-34.4,0-62.2,27.9-62.2,62.2v466.7
				c0,34.4,27.9,62.2,62.2,62.2H834c34.4,0,62.2-27.9,62.2-62.2V348.1c0-34.4-27.9-62.2-62.2-62.2L709.5,410.3L499.5,192.6
				L499.5,192.6z"/>
		</g>
	</g>
	<g id="圆角矩形_15">
		<g>
			<path class="st0" d="M86.4,638.1c-0.1-0.6-0.2-1.4-0.2-2.2s0.1-1.6,0.2-2.2h841.9c0.1,0.6,0.2,1.4,0.2,2.2s-0.1,1.6-0.2,2.2H86.4
				z"/>
		</g>
		<g>
			<path class="st1" d="M935.1,603.7H79.6c-12.9,0-23.3,14.4-23.3,32.2s10.4,32.2,23.3,32.2h855.6c12.9,0,23.3-14.4,23.3-32.2
				S948,603.7,935.1,603.7L935.1,603.7z"/>
		</g>
	</g>
	<g id="椭圆_10">
		<g>
			<path class="st1" d="M507.3,268.8c-42.1,0-76.3-34.2-76.3-76.3s34.2-76.3,76.3-76.3s76.3,34.2,76.3,76.3
				C583.6,234.6,549.4,268.8,507.3,268.8z"/>
		</g>
		<g>
			<path class="st1" d="M507.3,117.8c41.2,0,74.8,33.6,74.8,74.8s-33.5,74.8-74.8,74.8s-74.8-33.6-74.8-74.8
				C432.6,151.3,466.1,117.8,507.3,117.8 M507.3,114.8c-43,0-77.8,34.8-77.8,77.8s34.8,77.8,77.8,77.8s77.8-34.8,77.8-77.8
				C585.1,149.6,550.3,114.8,507.3,114.8L507.3,114.8z"/>
		</g>
	</g>
	<g id="椭圆_10_拷贝">
		<g>
			<path class="st1" d="M149.6,346.6c-42.1,0-76.3-34.2-76.3-76.3s34.2-76.3,76.3-76.3s76.3,34.2,76.3,76.3S191.6,346.6,149.6,346.6
				z"/>
		</g>
		<g>
			<path class="st1" d="M149.6,195.6c41.2,0,74.8,33.6,74.8,74.8s-33.6,74.8-74.8,74.8s-74.8-33.5-74.8-74.8
				S108.3,195.6,149.6,195.6 M149.6,192.6c-43,0-77.8,34.8-77.8,77.8s34.8,77.8,77.8,77.8s77.8-34.8,77.8-77.8
				C227.3,227.4,192.5,192.6,149.6,192.6L149.6,192.6z"/>
		</g>
	</g>
	<g id="椭圆_10_拷贝_2">
		<g>
			<path class="st1" d="M865.1,346.6c-42.1,0-76.3-34.2-76.3-76.3s34.2-76.3,76.3-76.3s76.3,34.2,76.3,76.3
				C941.4,312.4,907.2,346.6,865.1,346.6z"/>
		</g>
		<g>
			<path class="st1" d="M865.1,195.6c41.2,0,74.8,33.6,74.8,74.8s-33.5,74.8-74.8,74.8c-41.2,0-74.8-33.5-74.8-74.8
				C790.3,229.1,823.9,195.6,865.1,195.6 M865.1,192.6c-43,0-77.8,34.8-77.8,77.8s34.8,77.8,77.8,77.8s77.8-34.8,77.8-77.8
				C942.9,227.4,908.1,192.6,865.1,192.6L865.1,192.6z"/>
		</g>
	</g>
</g>
</svg>
