<?xml version="1.0" encoding="utf-8"?>
<!-- Generator: Adobe Illustrator 23.0.0, SVG Export Plug-In . SVG Version: 6.00 Build 0)  -->
<svg version="1.1" xmlns="http://www.w3.org/2000/svg" xmlns:xlink="http://www.w3.org/1999/xlink" x="0px" y="0px"
	 viewBox="0 0 1024 1024" style="enable-background:new 0 0 1024 1024;" xml:space="preserve">
<style type="text/css">
	.st0{fill:#FFD948;}
	.st1{fill:#333333;}
</style>
<g id="参考线">
</g>
<g id="图层_2">
	<g id="圆角矩形_14">
		<g>
			<path class="st0" d="M180.67,847c-17.77,0-32.22-14.46-32.22-32.22V348.11c0-13.85,8.79-25.69,21.08-30.24l127.88,136.44
				L499.94,236.2l209.2,216.95l135.49-135.46c12.56,4.4,21.6,16.38,21.6,30.42v466.67c0,17.77-14.46,32.22-32.22,32.22H180.67z"/>
		</g>
		<g>
			<path class="st1" d="M500.35,279.84l165.99,172.14l42.41,43.98l43.21-43.2l84.27-84.26v446.27c0,1.25-0.98,2.22-2.22,2.22H180.67
				c-1.24,0-2.22-0.98-2.22-2.22V371.25l75.08,80.11l43.98,46.92l43.76-47.13L500.35,279.84 M499.53,192.55L297.31,410.33
				L180.67,285.89c-34.36,0-62.22,27.86-62.22,62.22v466.67c0,34.36,27.86,62.22,62.22,62.22H834c34.36,0,62.22-27.86,62.22-62.22
				V348.11c0-34.36-27.86-62.22-62.22-62.22L709.53,410.33L499.53,192.55L499.53,192.55z"/>
		</g>
	</g>
	<g id="圆角矩形_15">
		<g>
			<path class="st0" d="M86.39,638.08c-0.1-0.64-0.17-1.38-0.17-2.2s0.07-1.56,0.17-2.2h841.89c0.1,0.64,0.17,1.38,0.17,2.2
				s-0.07,1.56-0.17,2.2H86.39z"/>
		</g>
		<g>
			<path class="st1" d="M935.11,603.69H79.56c-12.89,0-23.33,14.41-23.33,32.2s10.45,32.2,23.33,32.2h855.56
				c12.89,0,23.33-14.41,23.33-32.2S948,603.69,935.11,603.69L935.11,603.69z"/>
		</g>
	</g>
	<g id="椭圆_10">
		<g>
			<path class="st1" d="M507.34,268.83c-42.06,0-76.28-34.22-76.28-76.28c0-42.06,34.22-76.28,76.28-76.28
				c42.06,0,76.28,34.22,76.28,76.28C583.61,234.61,549.4,268.83,507.34,268.83z"/>
		</g>
		<g>
			<path class="st1" d="M507.34,117.78c41.23,0,74.78,33.55,74.78,74.78c0,41.23-33.55,74.78-74.78,74.78s-74.78-33.55-74.78-74.78
				C432.56,151.32,466.1,117.78,507.34,117.78 M507.34,114.78c-42.96,0-77.78,34.82-77.78,77.78c0,42.96,34.82,77.78,77.78,77.78
				s77.78-34.82,77.78-77.78C585.11,149.6,550.29,114.78,507.34,114.78L507.34,114.78z"/>
		</g>
	</g>
	<g id="椭圆_10_拷贝">
		<g>
			<path class="st1" d="M149.56,346.61c-42.06,0-76.28-34.22-76.28-76.28c0-42.06,34.22-76.28,76.28-76.28s76.28,34.22,76.28,76.28
				C225.84,312.39,191.62,346.61,149.56,346.61z"/>
		</g>
		<g>
			<path class="st1" d="M149.56,195.55c41.23,0,74.78,33.55,74.78,74.78c0,41.23-33.55,74.78-74.78,74.78s-74.78-33.55-74.78-74.78
				C74.78,229.1,108.33,195.55,149.56,195.55 M149.56,192.55c-42.96,0-77.78,34.82-77.78,77.78c0,42.96,34.82,77.78,77.78,77.78
				c42.96,0,77.78-34.82,77.78-77.78C227.34,227.38,192.51,192.55,149.56,192.55L149.56,192.55z"/>
		</g>
	</g>
	<g id="椭圆_10_拷贝_2">
		<g>
			<path class="st1" d="M865.12,346.61c-42.06,0-76.28-34.22-76.28-76.28c0-42.06,34.22-76.28,76.28-76.28s76.28,34.22,76.28,76.28
				C941.39,312.39,907.17,346.61,865.12,346.61z"/>
		</g>
		<g>
			<path class="st1" d="M865.11,195.55c41.23,0,74.78,33.55,74.78,74.78c0,41.23-33.55,74.78-74.78,74.78
				c-41.23,0-74.78-33.55-74.78-74.78C790.34,229.1,823.88,195.55,865.11,195.55 M865.11,192.55c-42.96,0-77.78,34.82-77.78,77.78
				c0,42.96,34.82,77.78,77.78,77.78c42.96,0,77.78-34.82,77.78-77.78C942.89,227.38,908.07,192.55,865.11,192.55L865.11,192.55z"/>
		</g>
	</g>
</g>
</svg>
