<?xml version="1.0" encoding="utf-8"?>
<!-- Generator: Adobe Illustrator 23.0.0, SVG Export Plug-In . SVG Version: 6.00 Build 0)  -->
<svg version="1.1" xmlns="http://www.w3.org/2000/svg" xmlns:xlink="http://www.w3.org/1999/xlink" x="0px" y="0px"
	 viewBox="0 0 1024 1024" style="enable-background:new 0 0 1024 1024;" xml:space="preserve">
<style type="text/css">
	.st0{fill:#FFD948;}
	.st1{fill:#333333;}
	.st2{fill:none;stroke:#333333;stroke-width:60;stroke-linecap:round;stroke-linejoin:round;stroke-miterlimit:100;}
</style>
<g id="参考线">
</g>
<g id="图层_2">
	<g id="圆角矩形_4">
		<g>
			<path class="st0" d="M726.49,353.71h-434.8c-96.54,0-174.79,78.26-174.79,174.8v173.7c0,96.54,78.26,174.8,174.79,174.8h434.8
				c96.54,0,174.8-78.26,174.8-174.8v-173.7C901.29,431.96,823.03,353.71,726.49,353.71z"/>
		</g>
	</g>
	<g id="圆角矩形_5">
		<g>
			<path class="st1" d="M448.66,473.39c-25.03,0-45.33,20.1-45.33,44.9v149.65c0,24.8,20.29,44.9,45.33,44.9
				c0,0,181.3-43.28,181.3-117.58C629.96,516.2,448.66,473.39,448.66,473.39z"/>
		</g>
	</g>
	<g id="圆角矩形_4_拷贝">
		<g>
			<path class="st2" d="M726.49,278.87h-434.8c-96.54,0-174.79,78.26-174.79,174.8V702.2c0,96.54,78.26,174.8,174.79,174.8h434.8
				c96.54,0,174.8-78.26,174.8-174.8V453.67C901.29,357.13,823.03,278.87,726.49,278.87z"/>
		</g>
	</g>
	<line class="st2" x1="227" y1="290" x2="467" y2="169"/>
</g>
</svg>
