<?xml version="1.0" encoding="utf-8"?>
<!-- Generator: Adobe Illustrator 23.0.0, SVG Export Plug-In . SVG Version: 6.00 Build 0)  -->
<svg version="1.1" id="图层_2" xmlns="http://www.w3.org/2000/svg" xmlns:xlink="http://www.w3.org/1999/xlink" x="0px" y="0px"
	 viewBox="0 0 1024 1024" style="enable-background:new 0 0 1024 1024;" xml:space="preserve">
<style type="text/css">
	.st0{fill:#FFFFFF;}
	.st1{fill:#333333;}
	.st2{fill:#FFD948;}
</style>
<g id="参考线">
</g>
<g id="圆角矩形_12_拷贝">
	<g>
		<path class="st0" d="M157.9,544.2c-17.6,0-32-14.3-32-32V326.4c0-103,83.8-186.9,186.9-186.9h340.8c17.6,0,32,14.3,32,32v340.8
			c0,17.6-14.3,32-32,32H157.9z"/>
	</g>
	<g>
		<path class="st1" d="M653.6,169.5c1.1,0,2,0.9,2,2v340.8c0,1.1-0.9,2-2,2H157.9c-1.1,0-2-0.9-2-2V326.4
			c0-41.9,16.3-81.3,45.9-110.9s69-45.9,110.9-45.9H653.6 M653.6,109.5H312.8C193,109.5,96,206.6,96,326.4v185.9
			c0,34.2,27.7,62,62,62h495.7c34.2,0,62-27.7,62-62V171.5C715.5,137.3,687.8,109.5,653.6,109.5L653.6,109.5z"/>
	</g>
</g>
<g id="圆角矩形_12">
	<g>
		<path class="st2" d="M219.9,854c-51.8,0-93.9-42.1-93.9-93.9V388.3c0-17.6,14.3-32,32-32h712.5c17.6,0,32,14.3,32,32v371.8
			c0,51.8-42.1,93.9-93.9,93.9H219.9z"/>
	</g>
	<g>
		<path class="st1" d="M870.4,386.4c1.1,0,2,0.9,2,2v371.8c0,35.2-28.7,63.9-63.9,63.9H219.9c-35.2,0-63.9-28.7-63.9-63.9V388.3
			c0-1.1,0.9-2,2-2H870.4 M870.4,326.4H157.9c-34.2,0-62,27.7-62,62v371.8C96,828.5,151.4,884,219.9,884h588.6
			c68.4,0,123.9-55.5,123.9-123.9V388.3C932.4,354.1,904.7,326.4,870.4,326.4L870.4,326.4z"/>
	</g>
</g>
<g id="圆角矩形_13">
	<g>
		
			<ellipse transform="matrix(8.248174e-02 -0.9966 0.9966 8.248174e-02 10.7657 1222.066)" class="st1" cx="669.1" cy="605.2" rx="75.9" ry="75.9"/>
	</g>
	<g>
		<path class="st1" d="M669.1,530.7c41.1,0,74.4,33.4,74.4,74.4c0,41.1-33.4,74.4-74.4,74.4s-74.4-33.4-74.4-74.4
			C594.6,564.1,628,530.7,669.1,530.7 M669.1,527.7c-42.8,0-77.4,34.7-77.4,77.4c0,42.8,34.7,77.4,77.4,77.4s77.4-34.7,77.4-77.4
			C746.5,562.4,711.8,527.7,669.1,527.7L669.1,527.7z"/>
	</g>
</g>
</svg>
